<?xml version="1.0" standalone="no"?>
<!DOCTYPE svg PUBLIC "-//W3C//DTD SVG 20010904//EN"
 "http://www.w3.org/TR/2001/REC-SVG-20010904/DTD/svg10.dtd">
<svg version="1.0" xmlns="http://www.w3.org/2000/svg"
 width="622.000000pt" height="401.000000pt" viewBox="0 0 622.000000 401.000000"
 preserveAspectRatio="xMidYMid meet">

<g transform="translate(0.000000,401.000000) scale(0.100000,-0.100000)"
fill="#000000" stroke="none">
<path d="M1170 2796 l0 -283 -165 -119 -165 -119 0 -137 0 -137 152 90 c84 49
158 89 165 89 10 0 13 -42 13 -190 0 -104 2 -190 4 -190 3 0 60 33 128 74 68
40 377 223 688 406 311 183 575 339 588 346 21 14 22 20 22 159 0 80 -2 145
-4 145 -2 0 -62 -34 -133 -75 -71 -41 -135 -75 -141 -75 -9 0 -12 42 -12 150
l0 150 -570 0 -570 0 0 -284z"/>
<path d="M2240 2161 c-25 -16 -308 -183 -630 -371 -322 -189 -609 -358 -637
-376 l-53 -34 0 -160 c0 -88 2 -160 5 -160 3 0 55 30 116 66 61 36 112 64 114
62 2 -2 6 -80 9 -172 3 -93 7 -171 9 -173 3 -3 945 -7 1085 -4 l52 1 0 351 0
351 156 161 156 161 -7 106 c-4 58 -8 106 -9 107 -2 2 -66 -41 -144 -94 -78
-53 -144 -95 -146 -92 -5 6 -16 162 -16 237 0 34 -3 62 -7 62 -5 0 -28 -13
-53 -29z"/>
<path d="M3905 2176 c-46 -23 -58 -36 -85 -95 -22 -47 -25 -68 -24 -155 0 -88
3 -108 27 -156 30 -61 74 -98 131 -107 31 -5 43 -1 77 27 22 17 42 30 44 28 2
-2 5 -20 7 -41 2 -36 3 -36 23 -19 34 28 35 33 35 145 l0 107 -80 0 c-79 0
-80 0 -80 -25 0 -23 4 -25 45 -25 55 0 64 -15 41 -65 -18 -38 -64 -75 -94 -75
-36 0 -71 39 -88 98 -23 78 -15 203 16 255 51 85 127 75 121 -16 l-2 -42 45
46 c26 27 44 53 41 60 -19 48 -144 82 -200 55z"/>
<path d="M4370 2183 c-32 -13 -65 -46 -89 -91 -22 -41 -25 -60 -25 -157 -1
-95 3 -117 23 -162 28 -63 75 -101 133 -109 38 -5 47 -2 77 25 19 17 38 31 42
31 4 0 9 -18 11 -39 3 -39 3 -39 25 -22 24 20 26 30 24 159 l-1 92 -74 0 c-71
0 -74 -1 -78 -25 -5 -24 -3 -25 44 -25 60 0 67 -13 38 -69 -43 -86 -125 -91
-167 -11 -19 36 -23 58 -23 137 0 131 38 213 100 213 36 0 50 -17 50 -62 0
-21 4 -38 9 -38 5 0 24 19 42 41 39 49 34 63 -31 97 -42 21 -97 27 -130 15z"/>
<path d="M4951 2096 c-16 -19 -57 -25 -170 -27 -89 -1 -93 -2 -73 -18 19 -15
21 -29 27 -174 5 -155 1 -190 -28 -209 -6 -3 42 -6 105 -6 l115 -1 16 35 c27
56 22 70 -14 39 -27 -22 -40 -25 -83 -23 l-51 3 0 65 0 65 35 3 c35 3 69 33
70 61 0 10 -3 11 -14 2 -8 -7 -32 -11 -53 -9 l-38 3 0 55 0 55 70 5 c70 5 70
5 88 44 19 40 18 56 -2 32z"/>
<path d="M5252 1970 c2 -67 -1 -117 -7 -120 -10 -6 -16 5 -73 135 l-39 90 -52
3 c-28 2 -51 0 -51 -4 0 -3 11 -19 25 -36 23 -28 25 -35 24 -151 -1 -67 -1
-153 0 -190 l1 -69 26 31 c23 28 25 37 25 136 0 81 3 105 14 105 7 0 19 -17
25 -37 7 -21 29 -71 48 -110 28 -57 41 -73 58 -73 18 0 22 7 28 53 3 28 6 110
6 180 0 119 1 129 23 150 l22 22 -53 0 -53 0 3 -115z"/>
<path d="M3098 2048 c10 -21 15 -52 13 -83 -1 -27 1 -103 5 -167 6 -116 7
-118 30 -118 27 0 24 -29 28 258 l2 142 -47 0 -47 0 16 -32z"/>
<path d="M3338 2068 c14 -14 15 -106 2 -163 -5 -22 -11 -65 -14 -95 -8 -75
-22 -151 -31 -172 -10 -25 5 -22 43 10 31 26 33 32 46 140 8 62 17 116 20 119
13 13 24 -11 82 -170 l17 -48 14 38 c8 21 17 47 20 58 20 76 36 115 49 115 8
0 14 -10 14 -22 0 -12 4 -47 10 -77 5 -31 12 -73 15 -93 5 -33 10 -38 32 -38
29 0 30 -32 -4 263 l-17 147 -36 0 c-47 0 -55 -8 -56 -55 -3 -61 -25 -145 -39
-145 -12 0 -65 148 -65 183 0 14 -9 17 -57 17 -44 0 -54 -3 -45 -12z"/>
</g>
</svg>
